<svg xmlns="http://www.w3.org/2000/svg" version="1.1" xmlns:xlink="http://www.w3.org/1999/xlink" width="1000" height="1000"><g clip-path="url(#SvgjsClipPath1074)"><rect width="1000" height="1000" fill="2A1D1A"></rect><g transform="matrix(3.888888888888889,0,0,3.888888888888889,150,150)"><svg xmlns="http://www.w3.org/2000/svg" version="1.1" xmlns:xlink="http://www.w3.org/1999/xlink" width="180" height="180"><svg width="180" height="180" viewBox="0 0 180 180" fill="none" xmlns="http://www.w3.org/2000/svg">
<rect width="180" height="180" fill="#2A1D1A"></rect>
<path d="M88.02 160.74C86.7 152.94 83.22 144.54 77.58 135.54C71.94 126.42 63.9 117.96 53.46 110.16C43.14 102.36 32.82 97.38 22.5 95.22V87.66C32.7 85.26 42.48 80.82 51.84 74.34C61.32 67.74 69.24 59.82 75.6 50.58C82.08 41.1 86.22 31.74 88.02 22.5H95.58C96.66 28.5 98.82 34.68 102.06 41.04C105.3 47.28 109.44 53.28 114.48 59.04C119.64 64.68 125.4 69.78 131.76 74.34C141.24 81.06 150.9 85.5 160.74 87.66V95.22C154.14 96.54 147.3 99.24 140.22 103.32C133.26 107.4 126.78 112.26 120.78 117.9C114.78 123.42 109.86 129.24 106.02 135.36C100.38 144.36 96.9 152.82 95.58 160.74H88.02Z" fill="#FFFF00"></path>
</svg></svg></g></g><defs><clipPath id="SvgjsClipPath1074"><rect width="1000" height="1000" x="0" y="0" rx="350" ry="350"></rect></clipPath></defs></svg>